<svg width="93" height="33" viewBox="0 0 93 33" fill="none" xmlns="http://www.w3.org/2000/svg">
<path fill-rule="evenodd" clip-rule="evenodd" d="M17.7078 2.77586C10.3419 1.58027 3.41673 6.67768 2.23994 14.1613C1.67874 17.7301 2.52521 21.195 4.36442 23.9761C4.47701 24.1464 4.59331 24.314 4.71324 24.479L6.88395 22.6266C5.36447 20.2143 4.7824 17.1987 5.50651 14.1975C6.91005 8.38037 12.6894 4.82064 18.415 6.24661C19.7627 6.58226 20.9895 7.16534 22.0583 7.93741C22.4232 8.20101 22.7695 8.48651 23.0958 8.79151L26.8373 5.5985C26.8373 5.5985 27.1683 5.9531 27.4579 6.27103C27.7475 6.58897 28.0785 7.02764 28.0785 7.02764L28.0767 7.0292C29.1057 8.37261 29.9262 9.89085 30.488 11.5334C31.0448 13.1611 31.3469 14.9092 31.3469 16.7269C31.3469 25.4349 24.4205 32.5 15.8693 32.5C12.515 32.5 9.40745 31.4114 6.87198 29.5626L8.07815 27.8552C10.2741 29.4564 12.9624 30.3983 15.8693 30.3983C23.2717 30.3983 29.2783 24.2807 29.2783 16.7269C29.2783 15.1472 29.0159 13.6321 28.534 12.2233C28.0581 10.8319 27.3675 9.5425 26.5023 8.39636L9.76022 22.9344C10.8397 24.0432 12.2246 24.8725 13.8248 25.271C18.4408 26.4206 23.1001 23.5508 24.2317 18.861C24.4119 18.1139 24.487 17.3041 24.4557 16.4838L26.5228 16.4025C26.5608 17.4017 26.4707 18.4085 26.2408 19.3614C24.8373 25.1785 19.0579 28.7382 13.3323 27.3123C11.2944 26.8047 9.53801 25.734 8.18415 24.303L2.05711 29.6234L1.88197 26.8952L3.12657 25.8331C2.96095 25.6091 2.80115 25.3808 2.64738 25.1482C0.527869 21.9433 -0.449748 17.944 0.19723 13.8297C1.55425 5.19993 9.54009 -0.678212 18.0341 0.700496C20.0343 1.02517 21.8867 1.72422 23.5311 2.7169L22.4744 4.52371C21.0509 3.66435 19.4458 3.05797 17.7078 2.77586ZM8.48451 21.2606L21.4954 10.1572C21.2922 9.97877 21.08 9.80951 20.8596 9.65025C20.0002 9.02943 19.0124 8.55929 17.9225 8.28785C13.3065 7.13824 8.64718 10.0081 7.51565 14.6979C6.95493 17.0218 7.3657 19.3566 8.48451 21.2606Z" fill="white"/>
<path d="M45.1389 27.82C43.3683 27.82 41.8003 27.532 40.4349 26.956C39.0909 26.3587 38.0349 25.4733 37.2669 24.3C36.5203 23.1267 36.1469 21.676 36.1469 19.948C36.1469 17.5373 36.8296 15.6173 38.1949 14.188C39.5603 12.7373 41.5976 12.012 44.3069 12.012C46.7816 12.012 48.7123 12.6413 50.0989 13.9C51.5069 15.1587 52.2109 16.876 52.2109 19.052V21.708H41.6829C41.9603 22.5187 42.5043 23.0947 43.3149 23.436C44.1256 23.7773 45.2243 23.948 46.6109 23.948C47.4856 23.948 48.3603 23.8733 49.2349 23.724C50.1309 23.5533 50.8456 23.3613 51.3789 23.148V26.764C49.8856 27.468 47.8056 27.82 45.1389 27.82ZM41.6829 18.444H47.0269V17.9C47.0269 17.3027 46.8349 16.812 46.4509 16.428C46.0883 16.044 45.4376 15.852 44.4989 15.852C43.4536 15.852 42.7176 16.076 42.2909 16.524C41.8856 16.9507 41.6829 17.5907 41.6829 18.444ZM59.5952 27.82C57.7392 27.82 56.4165 27.4253 55.6272 26.636C54.8378 25.8467 54.4432 24.6093 54.4432 22.924V5.932H60.4592V22.252C60.4592 22.7213 60.5552 23.0413 60.7472 23.212C60.9392 23.3613 61.2378 23.436 61.6432 23.436C61.9205 23.436 62.1872 23.4147 62.4432 23.372C62.7205 23.3293 62.9765 23.2653 63.2112 23.18V27.18C62.6565 27.3933 62.1125 27.5533 61.5792 27.66C61.0672 27.7667 60.4058 27.82 59.5952 27.82ZM64.5929 10.316V5.964H71.0889V10.316H64.5929ZM65.0729 27.5V16.716H62.8649L63.3769 12.332H71.0889V27.5H65.0729ZM82.1984 27.82C79.1691 27.82 76.9291 27.148 75.4784 25.804C74.0491 24.46 73.3344 22.4973 73.3344 19.916C73.3344 17.356 74.0598 15.404 75.5104 14.06C76.9611 12.6947 79.1904 12.012 82.1984 12.012C85.2278 12.012 87.4678 12.6947 88.9184 14.06C90.3904 15.404 91.1264 17.356 91.1264 19.916C91.1264 22.4973 90.4011 24.46 88.9504 25.804C87.4998 27.148 85.2491 27.82 82.1984 27.82ZM82.1984 23.436C83.1798 23.436 83.8838 23.1587 84.3104 22.604C84.7584 22.0493 84.9824 21.1533 84.9824 19.916C84.9824 18.7 84.7584 17.8147 84.3104 17.26C83.8838 16.684 83.1798 16.396 82.1984 16.396C81.2384 16.396 80.5451 16.684 80.1184 17.26C79.6918 17.8147 79.4784 18.7 79.4784 19.916C79.4784 21.1533 79.6918 22.0493 80.1184 22.604C80.5451 23.1587 81.2384 23.436 82.1984 23.436Z" fill="#FAFAFA"/>
</svg>
