<svg width="10" height="16" viewBox="0 0 10 16" fill="none" xmlns="http://www.w3.org/2000/svg">
<path d="M9.17518 8.01648C9.17518 8.12637 9.15371 8.24176 9.11077 8.36264C9.06783 8.48352 8.99267 8.5989 8.88531 8.70879L2.54039 15.2033C2.34714 15.4011 2.11095 15.5 1.83181 15.5C1.55268 15.5 1.31649 15.4011 1.12324 15.2033C0.929998 15.0055 0.833374 14.7747 0.833374 14.511C0.833374 14.2473 0.929998 14.0165 1.12324 13.8187L6.79181 8.01648L1.12324 2.21429C0.929997 2.01649 0.833373 1.78022 0.833373 1.5055C0.833373 1.23077 0.929997 0.994507 1.12324 0.796704C1.31649 0.598902 1.54731 0.5 1.81571 0.5C2.08411 0.5 2.31493 0.598902 2.50818 0.796704L8.88531 7.32418C8.99267 7.43407 9.06782 7.54396 9.11077 7.65385C9.15371 7.76374 9.17518 7.88462 9.17518 8.01648Z" fill="#201B32"/>
</svg>
