<svg width="14" height="15" viewBox="0 0 14 15" fill="none" xmlns="http://www.w3.org/2000/svg">
<path d="M9.66667 5.12694V2.79167C9.66667 2.23661 9.66667 1.95909 9.54986 1.78853C9.44781 1.63952 9.28976 1.53829 9.11184 1.50798C8.90819 1.47329 8.65646 1.5896 8.153 1.8222L2.23934 4.55436C1.79034 4.7618 1.56583 4.86552 1.4014 5.02639C1.25604 5.1686 1.14508 5.34219 1.077 5.53391C1 5.75077 1 5.99828 1 6.49331V9.79836M10 9.46468H10.0067M1 7.26245L1 11.6669C1 12.4144 1 12.7882 1.14532 13.0737C1.27316 13.3248 1.47713 13.529 1.72801 13.657C2.01323 13.8024 2.3866 13.8024 3.13333 13.8024H10.8667C11.6134 13.8024 11.9868 13.8024 12.272 13.657C12.5229 13.529 12.7268 13.3248 12.8547 13.0737C13 12.7882 13 12.4144 13 11.6669V7.26245C13 6.51495 13 6.1412 12.8547 5.8557C12.7268 5.60456 12.5229 5.40038 12.272 5.27242C11.9868 5.12694 11.6134 5.12694 10.8667 5.12694L3.13333 5.12694C2.3866 5.12694 2.01323 5.12694 1.72801 5.27241C1.47713 5.40038 1.27316 5.60456 1.14532 5.8557C1 6.1412 1 6.51495 1 7.26245ZM10.3333 9.46468C10.3333 9.64897 10.1841 9.79836 10 9.79836C9.81591 9.79836 9.66667 9.64897 9.66667 9.46468C9.66667 9.2804 9.81591 9.13101 10 9.13101C10.1841 9.13101 10.3333 9.2804 10.3333 9.46468Z" stroke="#FAFAFA" strokeWidth="1.3" strokeLinecap="round" strokeLinejoin="round"/>
</svg>
